<svg data-v-fde0c5aa="" xmlns="http://www.w3.org/2000/svg" viewBox="0 0 300 300" class="iconAbove"><!----><defs data-v-fde0c5aa=""><!----></defs><rect data-v-fde0c5aa="" fill="#053881" x="0" y="0" width="300px" height="300px" class="logo-background-square"></rect><defs data-v-fde0c5aa=""><!----></defs><g data-v-fde0c5aa="" id="33e493c5-8c36-455f-b205-0e94ad894178" fill="#ffffff" transform="matrix(5.9442155926573275,0,0,5.9442155926573275,19.583904862454617,170.5614989308993)"><path d="M2.17 12.63L0.07 5.78L1.85 5.78L3.01 10.06L4.30 5.78L5.73 5.78L7.01 10.04L8.19 5.78L9.97 5.78L7.85 12.61L6.36 12.61L5.01 8.13L3.67 12.63L2.17 12.63ZM12.88 12.74L12.88 12.74Q12.17 12.74 11.61 12.48L11.61 12.48L11.61 12.48Q11.05 12.22 10.72 11.71L10.72 11.71L10.72 11.71Q10.40 11.20 10.40 10.51L10.40 10.51L10.40 10.51Q10.40 9.46 11.13 9.00L11.13 9.00L11.13 9.00Q11.87 8.53 13.12 8.53L13.12 8.53L14.90 8.53L14.90 8.53Q14.90 7.87 14.55 7.48L14.55 7.48L14.55 7.48Q14.20 7.09 13.55 7.09L13.55 7.09L13.55 7.09Q13.00 7.09 12.60 7.36L12.60 7.36L12.60 7.36Q12.19 7.63 11.94 8.05L11.94 8.05L10.66 7.13L10.66 7.13Q11.19 6.41 11.88 6.02L11.88 6.02L11.88 6.02Q12.58 5.63 13.54 5.63L13.54 5.63L13.54 5.63Q14.45 5.63 15.12 5.99L15.12 5.99L15.12 5.99Q15.78 6.34 16.14 6.99L16.14 6.99L16.14 6.99Q16.49 7.63 16.49 8.46L16.49 8.46L16.49 12.61L15.11 12.61L15.00 11.63L15.00 11.63Q14.59 12.24 14.06 12.49L14.06 12.49L14.06 12.49Q13.54 12.74 12.88 12.74L12.88 12.74ZM13.12 11.33L13.12 11.33Q13.58 11.33 13.99 11.11L13.99 11.11L13.99 11.11Q14.39 10.89 14.64 10.52L14.64 10.52L14.64 10.52Q14.88 10.16 14.90 9.73L14.90 9.73L13.21 9.73L13.21 9.73Q12.67 9.73 12.39 9.97L12.39 9.97L12.39 9.97Q12.11 10.21 12.11 10.56L12.11 10.56L12.11 10.56Q12.11 10.91 12.37 11.12L12.37 11.12L12.37 11.12Q12.64 11.33 13.12 11.33L13.12 11.33ZM19.65 12.74L19.65 12.74Q18.99 12.74 18.61 12.41L18.61 12.41L18.61 12.41Q18.22 12.08 18.22 11.25L18.22 11.25L18.22 2.95L19.89 2.95L19.89 10.79L19.89 10.79Q19.89 11.25 20.44 11.25L20.44 11.25L20.44 11.25Q20.63 11.25 20.90 11.20L20.90 11.20L20.90 12.61L20.90 12.61Q20.20 12.74 19.65 12.74L19.65 12.74ZM24.47 12.74L24.47 12.74Q23.21 12.74 22.59 11.85L22.59 11.85L22.59 11.85Q21.98 10.96 21.98 9.37L21.98 9.37L21.98 5.78L23.67 5.78L23.67 9.43L23.67 9.43Q23.67 10.03 23.77 10.42L23.77 10.42L23.77 10.42Q23.87 10.81 24.14 11.02L24.14 11.02L24.14 11.02Q24.41 11.23 24.90 11.23L24.90 11.23L24.90 11.23Q25.60 11.23 26.04 10.72L26.04 10.72L26.04 10.72Q26.48 10.20 26.48 8.85L26.48 8.85L26.48 5.78L28.18 5.78L28.18 12.61L26.48 12.61L26.48 11.81L26.48 11.81Q26.12 12.28 25.60 12.51L25.60 12.51L25.60 12.51Q25.09 12.74 24.47 12.74L24.47 12.74ZM33.00 12.74L33.00 12.74Q31.88 12.74 31.10 12.26L31.10 12.26L31.10 12.26Q30.32 11.77 29.93 10.97L29.93 10.97L29.93 10.97Q29.54 10.17 29.54 9.21L29.54 9.21L29.54 9.21Q29.54 8.29 29.91 7.46L29.91 7.46L29.91 7.46Q30.28 6.64 31.04 6.14L31.04 6.14L31.04 6.14Q31.79 5.63 32.89 5.63L32.89 5.63L32.89 5.63Q34.02 5.63 34.73 6.15L34.73 6.15L34.73 6.15Q35.44 6.67 35.75 7.45L35.75 7.45L35.75 7.45Q36.06 8.23 36.06 9.08L36.06 9.08L36.06 9.08Q36.06 9.28 36.04 9.47L36.04 9.47L36.04 9.47Q36.03 9.66 36.00 9.73L36.00 9.73L31.31 9.73L31.31 9.73Q31.55 11.23 33.02 11.23L33.02 11.23L33.02 11.23Q33.50 11.23 33.91 11.06L33.91 11.06L33.91 11.06Q34.31 10.89 34.66 10.51L34.66 10.51L35.81 11.51L35.81 11.51Q35.25 12.13 34.56 12.44L34.56 12.44L34.56 12.44Q33.87 12.74 33.00 12.74L33.00 12.74ZM31.31 8.53L34.42 8.53L34.42 8.53Q34.34 7.81 33.94 7.42L33.94 7.42L33.94 7.42Q33.54 7.03 32.88 7.03L32.88 7.03L32.88 7.03Q31.58 7.03 31.31 8.53L31.31 8.53ZM40.31 12.74L40.31 12.74Q39.29 12.74 38.49 12.26L38.49 12.26L38.49 12.26Q37.69 11.78 37.25 10.96L37.25 10.96L37.25 10.96Q36.81 10.14 36.81 9.17L36.81 9.17L36.81 9.17Q36.81 8.21 37.25 7.40L37.25 7.40L37.25 7.40Q37.69 6.59 38.49 6.11L38.49 6.11L38.49 6.11Q39.29 5.63 40.31 5.63L40.31 5.63L40.31 5.63Q41.34 5.63 42.14 6.11L42.14 6.11L42.14 6.11Q42.94 6.59 43.37 7.40L43.37 7.40L43.37 7.40Q43.81 8.21 43.81 9.17L43.81 9.17L43.81 9.17Q43.81 10.14 43.37 10.96L43.37 10.96L43.37 10.96Q42.94 11.78 42.14 12.26L42.14 12.26L42.14 12.26Q41.34 12.74 40.31 12.74L40.31 12.74ZM40.31 11.31L40.31 11.31Q40.91 11.31 41.31 11.02L41.31 11.02L41.31 11.02Q41.71 10.73 41.89 10.24L41.89 10.24L41.89 10.24Q42.08 9.76 42.08 9.17L42.08 9.17L42.08 9.17Q42.08 8.26 41.64 7.67L41.64 7.67L41.64 7.67Q41.21 7.08 40.31 7.08L40.31 7.08L40.31 7.08Q39.71 7.08 39.31 7.36L39.31 7.36L39.31 7.36Q38.92 7.64 38.73 8.11L38.73 8.11L38.73 8.11Q38.55 8.59 38.55 9.17L38.55 9.17L38.55 9.17Q38.55 9.76 38.73 10.24L38.73 10.24L38.73 10.24Q38.92 10.73 39.31 11.02L39.31 11.02L39.31 11.02Q39.71 11.31 40.31 11.31L40.31 11.31Z"></path></g><defs data-v-fde0c5aa=""><!----></defs><g data-v-fde0c5aa="" id="b17f9691-d0e1-48ae-b90d-7f4d0715138d" stroke="none" fill="#07A0B4" transform="matrix(3.5462444220886873,0,0,3.5462444220886873,33.87821665865472,53.7091943619579)"><path d="M0 32.82L32.75 0l32.74 32.82h-1.33l-6.72-.04L33.39 6.35l4.19 9.66 2.63 4.48 2.56-.38-.23 5.64 5.82 1.01-1.05 3.6-7.46 2.46H1.34z"></path></g><!----></svg>